<svg version="1.1" id="Layer_1" xmlns="http://www.w3.org/2000/svg" xmlns:xlink="http://www.w3.org/1999/xlink" x="0px" y="0px"
	 width="840" height="600" viewBox="0 0 840 600" style="enable-background:new 0 0 841.89 595.28;" xml:space="preserve">
<style type="text/css">
	.st0{fill:#252526;}
	.st1{fill:#1D27DD;}
	.st2{fill:url(#SVGID_1_);}
	.st3{fill:url(#SVGID_2_);}
	.st4{fill:url(#SVGID_3_);}
	.st5{fill:url(#SVGID_4_);}
	.st6{fill:url(#SVGID_5_);}
	.st7{fill:url(#SVGID_6_);}
	.st8{fill:url(#SVGID_7_);}
	.st9{fill:url(#SVGID_8_);}
	.st10{fill:url(#SVGID_9_);}
	.st11{fill:url(#SVGID_10_);}
	.st12{fill:url(#SVGID_11_);}
	.st13{fill:url(#SVGID_12_);}
	.st14{fill:url(#SVGID_13_);}
	.st15{fill:#373737;}
</style>
<path class="st0" d="M756.87,495.12c0,11.26-9.13,20.38-20.38,20.38H103.82c-11.26,0-20.38-9.13-20.38-20.38V82.29
	c0-11.26,9.13-20.38,20.38-20.38h632.67c11.26,0,20.38,9.12,20.38,20.38V495.12z"/>
<path d="M103.82,514.04c-10.43,0-18.91-8.48-18.91-18.91V82.29c0-10.43,8.48-18.91,18.91-18.91h632.67
	c10.43,0,18.92,8.48,18.92,18.91v412.83c0,10.43-8.49,18.91-18.92,18.91H103.82z"/>
	<g id="screenLayer">
		<rect id="screen" x="94.74" y="77.37" width="650.84" height="407.62"/>
	</g>

<linearGradient id="SVGID_1_" gradientUnits="userSpaceOnUse" x1="24.1566" y1="515.5034" x2="816.1566" y2="515.5034">
	<stop  offset="0" style="stop-color:#A0A0A0"/>
	<stop  offset="0.0102" style="stop-color:#BCBCBC"/>
	<stop  offset="0.0188" style="stop-color:#979797"/>
	<stop  offset="0.033" style="stop-color:#C5C5C5"/>
	<stop  offset="0.9688" style="stop-color:#C5C5C5"/>
	<stop  offset="0.982" style="stop-color:#979797"/>
	<stop  offset="0.9897" style="stop-color:#BCBCBC"/>
	<stop  offset="1" style="stop-color:#A0A0A0"/>
</linearGradient>
<path class="st2" d="M816.16,521.49c0,0.42-0.34,0.76-0.76,0.76H24.92c-0.42,0-0.76-0.34-0.76-0.76v-11.98
	c0-0.42,0.34-0.76,0.76-0.76h790.47c0.42,0,0.76,0.34,0.76,0.76V521.49z"/>
<linearGradient id="SVGID_2_" gradientUnits="userSpaceOnUse" x1="361.291" y1="511.6393" x2="475.8264" y2="511.6393">
	<stop  offset="0" style="stop-color:#7A7A7A"/>
	<stop  offset="0.0188" style="stop-color:#646464"/>
	<stop  offset="0.0578" style="stop-color:#949494"/>
	<stop  offset="0.9414" style="stop-color:#949494"/>
	<stop  offset="0.976" style="stop-color:#646464"/>
	<stop  offset="1" style="stop-color:#7A7A7A"/>
</linearGradient>
<path class="st3" d="M361.29,508.75c0,0,0.35,5.77,13.94,5.77c9.54,0,77.12,0,86.66,0c13.58,0,13.94-5.77,13.94-5.77H361.29z"/>
<linearGradient id="SVGID_3_" gradientUnits="userSpaceOnUse" x1="420.157" y1="531.6056" x2="420.157" y2="522.2545">
	<stop  offset="0" style="stop-color:#8B8B8C"/>
	<stop  offset="1" style="stop-color:#2A2A2A"/>
</linearGradient>
<path class="st4" d="M24.93,522.25c0,0,20.65,6.38,39.65,8.61c5.38,0.62,6.31,0.74,6.31,0.74h698.52c0,0,0.93-0.12,6.31-0.74
	c19-2.23,39.65-8.61,39.65-8.61H24.93z"/>
<g>
	<linearGradient id="SVGID_4_" gradientUnits="userSpaceOnUse" x1="402.8345" y1="499.7567" x2="402.8345" y2="494.431">
		<stop  offset="0" style="stop-color:#B0B0B0"/>
		<stop  offset="1" style="stop-color:#E5E5E5"/>
	</linearGradient>
	<path class="st5" d="M401.13,494.43l1.7,4.33h0.02l1.7-4.33h0.92v5.33h-0.72v-2.11l0.07-2.17l-0.02,0l-1.73,4.28h-0.48l-1.72-4.27
		l-0.02,0l0.07,2.16v2.11h-0.72v-5.33H401.13z"/>
	<linearGradient id="SVGID_5_" gradientUnits="userSpaceOnUse" x1="408.1707" y1="499.8345" x2="408.1707" y2="495.7247">
		<stop  offset="0" style="stop-color:#B0B0B0"/>
		<stop  offset="1" style="stop-color:#E5E5E5"/>
	</linearGradient>
	<path class="st6" d="M409.08,499.76c-0.02-0.12-0.04-0.23-0.06-0.32c-0.01-0.09-0.02-0.18-0.02-0.28
		c-0.13,0.19-0.31,0.35-0.53,0.48c-0.22,0.13-0.45,0.19-0.7,0.19c-0.41,0-0.73-0.11-0.94-0.32c-0.22-0.21-0.32-0.5-0.32-0.87
		c0-0.38,0.15-0.67,0.46-0.89c0.31-0.21,0.72-0.32,1.25-0.32H409v-0.39c0-0.23-0.07-0.42-0.21-0.55c-0.14-0.14-0.34-0.2-0.6-0.2
		c-0.23,0-0.42,0.06-0.57,0.18c-0.15,0.12-0.22,0.26-0.22,0.43h-0.69l-0.01-0.02c-0.01-0.29,0.12-0.55,0.41-0.79
		c0.29-0.24,0.66-0.36,1.11-0.36c0.45,0,0.81,0.11,1.08,0.34c0.27,0.23,0.41,0.56,0.41,0.99v1.9c0,0.14,0.01,0.28,0.02,0.41
		c0.01,0.13,0.04,0.26,0.08,0.39H409.08z M407.89,499.23c0.26,0,0.5-0.07,0.71-0.2c0.21-0.13,0.35-0.29,0.41-0.46v-0.64h-0.81
		c-0.29,0-0.52,0.07-0.7,0.22c-0.17,0.15-0.26,0.32-0.26,0.51c0,0.17,0.06,0.31,0.16,0.42
		C407.51,499.18,407.67,499.23,407.89,499.23z"/>
	<linearGradient id="SVGID_6_" gradientUnits="userSpaceOnUse" x1="412.2724" y1="499.8345" x2="412.2724" y2="495.7247">
		<stop  offset="0" style="stop-color:#B0B0B0"/>
		<stop  offset="1" style="stop-color:#E5E5E5"/>
	</linearGradient>
	<path class="st7" d="M412.38,499.27c0.24,0,0.45-0.07,0.63-0.22c0.18-0.15,0.27-0.33,0.27-0.54h0.65l0.01,0.02
		c0.01,0.34-0.14,0.65-0.46,0.91c-0.32,0.27-0.68,0.4-1.1,0.4c-0.58,0-1.02-0.19-1.32-0.56c-0.3-0.38-0.46-0.85-0.46-1.42v-0.15
		c0-0.56,0.15-1.03,0.46-1.41c0.31-0.38,0.75-0.56,1.32-0.56c0.46,0,0.84,0.14,1.14,0.41c0.29,0.27,0.44,0.61,0.43,1.01l-0.01,0.02
		h-0.65c0-0.24-0.08-0.45-0.26-0.62c-0.17-0.17-0.39-0.25-0.65-0.25c-0.38,0-0.65,0.14-0.81,0.41c-0.16,0.27-0.24,0.61-0.24,1v0.15
		c0,0.4,0.08,0.74,0.24,1.01C411.73,499.13,412,499.27,412.38,499.27z"/>
	<linearGradient id="SVGID_7_" gradientUnits="userSpaceOnUse" x1="416.7466" y1="499.7567" x2="416.7466" y2="494.431">
		<stop  offset="0" style="stop-color:#B0B0B0"/>
		<stop  offset="1" style="stop-color:#E5E5E5"/>
	</linearGradient>
	<path class="st8" d="M414.88,499.76v-5.33h1.74c0.56,0,0.99,0.12,1.31,0.36c0.31,0.24,0.47,0.6,0.47,1.08
		c0,0.24-0.08,0.45-0.23,0.63c-0.15,0.19-0.35,0.32-0.6,0.42c0.32,0.07,0.58,0.23,0.76,0.47c0.18,0.25,0.28,0.53,0.28,0.86
		c0,0.49-0.16,0.86-0.47,1.12c-0.32,0.26-0.74,0.39-1.29,0.39H414.88z M415.6,496.69h1.17c0.27,0,0.49-0.07,0.66-0.22
		c0.17-0.15,0.25-0.35,0.25-0.62c0-0.29-0.09-0.5-0.27-0.65c-0.18-0.14-0.44-0.21-0.79-0.21h-1.02V496.69z M415.6,497.26v1.93h1.25
		c0.33,0,0.58-0.08,0.76-0.24c0.18-0.16,0.27-0.39,0.27-0.69c0-0.31-0.08-0.55-0.23-0.73c-0.15-0.18-0.39-0.27-0.7-0.27H415.6z"/>
	<linearGradient id="SVGID_8_" gradientUnits="userSpaceOnUse" x1="421.1406" y1="499.8345" x2="421.1406" y2="495.7247">
		<stop  offset="0" style="stop-color:#B0B0B0"/>
		<stop  offset="1" style="stop-color:#E5E5E5"/>
	</linearGradient>
	<path class="st9" d="M419.37,497.74c0-0.58,0.16-1.07,0.48-1.45c0.32-0.38,0.75-0.57,1.29-0.57c0.55,0,0.98,0.19,1.3,0.57
		c0.32,0.38,0.48,0.86,0.48,1.45v0.08c0,0.59-0.16,1.07-0.47,1.45c-0.32,0.37-0.75,0.56-1.3,0.56c-0.55,0-0.98-0.19-1.3-0.57
		c-0.32-0.38-0.48-0.86-0.48-1.45V497.74z M420.09,497.82c0,0.42,0.09,0.76,0.26,1.04c0.18,0.27,0.44,0.41,0.79,0.41
		c0.34,0,0.61-0.14,0.78-0.41c0.18-0.27,0.27-0.62,0.27-1.04v-0.08c0-0.41-0.09-0.76-0.27-1.03c-0.18-0.28-0.44-0.42-0.79-0.42
		c-0.34,0-0.6,0.14-0.78,0.42c-0.18,0.27-0.26,0.62-0.26,1.03V497.82z"/>
	<linearGradient id="SVGID_9_" gradientUnits="userSpaceOnUse" x1="425.3992" y1="499.8345" x2="425.3992" y2="495.7247">
		<stop  offset="0" style="stop-color:#B0B0B0"/>
		<stop  offset="1" style="stop-color:#E5E5E5"/>
	</linearGradient>
	<path class="st10" d="M423.63,497.74c0-0.58,0.16-1.07,0.48-1.45c0.32-0.38,0.75-0.57,1.29-0.57c0.55,0,0.98,0.19,1.3,0.57
		c0.32,0.38,0.48,0.86,0.48,1.45v0.08c0,0.59-0.16,1.07-0.47,1.45c-0.32,0.37-0.75,0.56-1.3,0.56c-0.55,0-0.98-0.19-1.3-0.57
		c-0.32-0.38-0.48-0.86-0.48-1.45V497.74z M424.35,497.82c0,0.42,0.09,0.76,0.27,1.04c0.18,0.27,0.44,0.41,0.79,0.41
		c0.35,0,0.61-0.14,0.78-0.41c0.18-0.27,0.27-0.62,0.27-1.04v-0.08c0-0.41-0.09-0.76-0.27-1.03c-0.18-0.28-0.44-0.42-0.79-0.42
		c-0.34,0-0.6,0.14-0.78,0.42c-0.17,0.27-0.27,0.62-0.27,1.03V497.82z"/>
	<linearGradient id="SVGID_10_" gradientUnits="userSpaceOnUse" x1="429.7199" y1="499.7567" x2="429.7199" y2="494.0488">
		<stop  offset="0" style="stop-color:#B0B0B0"/>
		<stop  offset="1" style="stop-color:#E5E5E5"/>
	</linearGradient>
	<path class="st11" d="M429.25,497.92h-0.46v1.83h-0.72v-5.71h0.72v3.31h0.46l1.09-1.56h0.86l-1.35,1.8l1.55,2.16h-0.85
		L429.25,497.92z"/>
	<linearGradient id="SVGID_11_" gradientUnits="userSpaceOnUse" x1="435.8118" y1="499.7567" x2="435.8118" y2="494.431">
		<stop  offset="0" style="stop-color:#B0B0B0"/>
		<stop  offset="1" style="stop-color:#E5E5E5"/>
	</linearGradient>
	<path class="st12" d="M434.62,497.62v2.14h-0.72v-5.33h2.04c0.57,0,1.01,0.14,1.32,0.44c0.31,0.29,0.47,0.68,0.47,1.16
		c0,0.49-0.16,0.87-0.47,1.16c-0.31,0.29-0.76,0.43-1.32,0.43H434.62z M434.62,497.05h1.32c0.36,0,0.63-0.1,0.81-0.29
		c0.17-0.2,0.27-0.44,0.27-0.73c0-0.29-0.09-0.54-0.27-0.74c-0.18-0.2-0.44-0.3-0.8-0.3h-1.32V497.05z"/>
	<linearGradient id="SVGID_12_" gradientUnits="userSpaceOnUse" x1="439.5443" y1="499.7567" x2="439.5443" y2="495.7247">
		<stop  offset="0" style="stop-color:#B0B0B0"/>
		<stop  offset="1" style="stop-color:#E5E5E5"/>
	</linearGradient>
	<path class="st13" d="M440.43,496.43l-0.37-0.02c-0.19,0-0.35,0.04-0.48,0.14c-0.13,0.09-0.23,0.22-0.3,0.38v2.83h-0.72v-3.96h0.64
		l0.07,0.58c0.12-0.2,0.25-0.36,0.42-0.48c0.16-0.12,0.35-0.17,0.57-0.17c0.05,0,0.1,0,0.15,0.01c0.05,0.01,0.09,0.02,0.12,0.03
		L440.43,496.43z"/>
	<linearGradient id="SVGID_13_" gradientUnits="userSpaceOnUse" x1="442.6589" y1="499.8345" x2="442.6589" y2="495.7247">
		<stop  offset="0" style="stop-color:#B0B0B0"/>
		<stop  offset="1" style="stop-color:#E5E5E5"/>
	</linearGradient>
	<path class="st14" d="M440.89,497.74c0-0.58,0.16-1.07,0.47-1.45c0.32-0.38,0.75-0.57,1.29-0.57c0.55,0,0.98,0.19,1.3,0.57
		c0.32,0.38,0.48,0.86,0.48,1.45v0.08c0,0.59-0.16,1.07-0.48,1.45c-0.32,0.37-0.75,0.56-1.29,0.56c-0.55,0-0.98-0.19-1.3-0.57
		c-0.32-0.38-0.48-0.86-0.48-1.45V497.74z M441.61,497.82c0,0.42,0.09,0.76,0.27,1.04c0.18,0.27,0.44,0.41,0.79,0.41
		c0.34,0,0.61-0.14,0.78-0.41c0.18-0.27,0.27-0.62,0.27-1.04v-0.08c0-0.41-0.09-0.76-0.27-1.03c-0.18-0.28-0.44-0.42-0.79-0.42
		c-0.35,0-0.6,0.14-0.78,0.42c-0.18,0.27-0.27,0.62-0.27,1.03V497.82z"/>
</g>
<path class="st15" d="M816.16,531.61c0,0.97-177.3,1.76-396,1.76c-218.7,0-396-0.79-396-1.76c0-0.97,177.3-1.76,396-1.76
	C638.86,529.84,816.16,530.63,816.16,531.61z"/>
</svg>
