<?xml version="1.0" encoding="UTF-8" standalone="no"?> <!-- Created with Vectornator for iOS (http://vectornator.io/) --><!DOCTYPE svg PUBLIC
        "-//W3C//DTD SVG 1.1//EN" "http://www.w3.org/Graphics/SVG/1.1/DTD/svg11.dtd">
<svg style="fill-rule:evenodd;clip-rule:evenodd;stroke-linecap:round;stroke-linejoin:round;"
     xmlns:vectornator="http://vectornator.io" xmlns:xlink="http://www.w3.org/1999/xlink"
     xmlns="http://www.w3.org/2000/svg" xml:space="preserve" version="1.1" viewBox="0 0 512 512">

    <g id="Layer 1">
<g opacity="1">
<path class="strokeColor" stroke="#000000" stroke-width="10"
      d="M85+160C85+118.579+118.579+85+160+85C201.421+85+235+118.579+235+160C235+201.421+201.421+235+160+235C118.579+235+85+201.421+85+160Z"
      fill="none" stroke-linecap="round" opacity="1" stroke-linejoin="round"/>
    <path class="fillColor"
          d="M100+160C100+126.863+126.863+100+160+100C193.137+100+220+126.863+220+160C220+193.137+193.137+220+160+220C126.863+220+100+193.137+100+160Z"
          fill-opacity="0.997773" fill="#000000" opacity="1"/>
</g>
        <g opacity="1">
<path class="strokeColor" stroke="#000000" stroke-width="10"
      d="M85+352C85+310.579+118.579+277+160+277C201.421+277+235+310.579+235+352C235+393.421+201.421+427+160+427C118.579+427+85+393.421+85+352Z"
      fill="none" stroke-linecap="round" opacity="1" stroke-linejoin="round"/>
            <path class="fillColor"
                  d="M100+352C100+318.863+126.863+292+160+292C193.137+292+220+318.863+220+352C220+385.137+193.137+412+160+412C126.863+412+100+385.137+100+352Z"
                  fill-opacity="0.997773" fill="#000000" opacity="1"/>
</g>
        <path class="strokeColor" stroke="#000000" stroke-width="10"
              d="M151+56L361+56C413.467+56+456+98.5329+456+151L456+361C456+413.467+413.467+456+361+456L151+456C98.5329+456+56+413.467+56+361L56+151C56+98.5329+98.5329+56+151+56Z"
              fill="none" stroke-linecap="round" opacity="1" stroke-linejoin="round"/>
        <path class="strokeColor" stroke="#000000" stroke-width="5"
              d="M304.503+256C304.503+233.909+322.412+216+344.503+216C366.595+216+384.503+233.909+384.503+256C384.503+278.091+366.595+296+344.503+296C322.412+296+304.503+278.091+304.503+256Z"
              fill="none" stroke-linecap="round" opacity="1" stroke-linejoin="round"/>
        <path class="fillColor"
              d="M329.5+155C329.5+146.716+336.216+140+344.5+140C352.784+140+359.5+146.716+359.5+155C359.5+163.284+352.784+170+344.5+170C336.216+170+329.5+163.284+329.5+155Z"
              fill-opacity="0.997773" fill="#000000" opacity="1"/>
</g>
</svg>
