<?xml version="1.0" encoding="utf-8"?>
<!-- Generator: Adobe Illustrator 24.0.1, SVG Export Plug-In . SVG Version: 6.00 Build 0)  -->
<svg version="1.1" id="圖層_1" xmlns="http://www.w3.org/2000/svg" xmlns:xlink="http://www.w3.org/1999/xlink" x="0px" y="0px"
	 width="768" height="1024" viewBox="0 0 768 1024" style="enable-background:new 0 0 768 1024;" xml:space="preserve">
<style type="text/css">
	.st0{fill:#BBBBBB;}
	.st1{fill:#121212;}
	.st2{fill:#03B7AE;}
	.st3{clip-path:url(#SVGID_2_);fill:url(#SVGID_3_);}
	.st4{clip-path:url(#SVGID_5_);fill:url(#SVGID_6_);}
	.st5{clip-path:url(#SVGID_8_);fill:url(#SVGID_9_);}
	.st6{fill:#1A1A1C;}
</style>
<g>
	<path class="st0" d="M82.8,997.5c-26.7,0-48.4-21.7-48.4-48.4V77c0-26.7,21.7-48.4,48.4-48.4h601.1c26.7,0,48.4,21.7,48.4,48.4
		v872.1c0,26.7-21.7,48.4-48.4,48.4H82.8z"/>
	<path class="st1" d="M728.1,949.1c0,24.4-19.8,44.2-44.2,44.2H82.8c-24.4,0-44.2-19.8-44.2-44.2V77c0-24.4,19.8-44.2,44.2-44.2
		h601.1c24.4,0,44.2,19.8,44.2,44.2V949.1z"/>
	<g id="screenLayer">
		<path id="screen" class="st2" d="M696.7,949.9c0,5.8-4.7,10.5-10.5,10.5H80.4c-5.8,0-10.5-4.7-10.5-10.5V76.2c0-5.8,4.7-10.5,10.5-10.5h605.8
		c5.8,0,10.5,4.7,10.5,10.5V949.9z"/>
	</g>

	<g>
		<defs>
			<path id="SVGID_1_" d="M635.5,28.6c0-1.2,0.9-2.1,2.1-2.1h42.2c1.2,0,2.1,0.9,2.1,2.1H635.5z"/>
		</defs>
		<use xlink:href="#SVGID_1_"  style="overflow:visible;fill:#B6B7B9;"/>
		<clipPath id="SVGID_2_">
			<use xlink:href="#SVGID_1_"  style="overflow:visible;"/>
		</clipPath>
		
			<linearGradient id="SVGID_3_" gradientUnits="userSpaceOnUse" x1="-293.9081" y1="66.6856" x2="-293.9081" y2="20.2591" gradientTransform="matrix(0 1 -1 0 702.168 321.8335)">
			<stop  offset="0" style="stop-color:#6D6E70"/>
			<stop  offset="8.064520e-02" style="stop-color:#BCBCBC"/>
			<stop  offset="0.1882" style="stop-color:#DBDBDD"/>
			<stop  offset="0.8602" style="stop-color:#D9D9DB"/>
			<stop  offset="0.9409" style="stop-color:#BCBCBC"/>
			<stop  offset="1" style="stop-color:#6D6E70"/>
		</linearGradient>
		<rect x="635.5" y="27.2" class="st3" width="46.4" height="1.4"/>
	</g>
	<g>
		<defs>
			<path id="SVGID_4_" d="M732.3,104.5c1.2,0,2.1,0.9,2.1,2.1v35.7c0,1.2-0.9,2.1-2.1,2.1V104.5z"/>
		</defs>
		<use xlink:href="#SVGID_4_"  style="overflow:visible;fill:#B6B7B9;"/>
		<clipPath id="SVGID_5_">
			<use xlink:href="#SVGID_4_"  style="overflow:visible;"/>
		</clipPath>
		
			<linearGradient id="SVGID_6_" gradientUnits="userSpaceOnUse" x1="-472.2548" y1="585.2241" x2="-472.2548" y2="545.285" gradientTransform="matrix(-1 0 0 -1 260.7324 689.6982)">
			<stop  offset="0" style="stop-color:#6D6E70"/>
			<stop  offset="8.064520e-02" style="stop-color:#BCBCBC"/>
			<stop  offset="0.1882" style="stop-color:#DBDBDD"/>
			<stop  offset="0.8602" style="stop-color:#D9D9DB"/>
			<stop  offset="0.9409" style="stop-color:#BCBCBC"/>
			<stop  offset="1" style="stop-color:#6D6E70"/>
		</linearGradient>
		<rect x="732.3" y="104.5" class="st4" width="1.4" height="39.9"/>
	</g>
	<g>
		<defs>
			<path id="SVGID_7_" d="M732.3,154.4c1.2,0,2.1,0.9,2.1,2.1v31.6c0,1.2-0.9,2.1-2.1,2.1V154.4z"/>
		</defs>
		<use xlink:href="#SVGID_7_"  style="overflow:visible;fill:#B6B7B9;"/>
		<clipPath id="SVGID_8_">
			<use xlink:href="#SVGID_7_"  style="overflow:visible;"/>
		</clipPath>
		
			<linearGradient id="SVGID_9_" gradientUnits="userSpaceOnUse" x1="-472.2548" y1="535.2654" x2="-472.2548" y2="499.4767" gradientTransform="matrix(-1 0 0 -1 260.7324 689.6982)">
			<stop  offset="0" style="stop-color:#6D6E70"/>
			<stop  offset="8.064520e-02" style="stop-color:#BCBCBC"/>
			<stop  offset="0.1882" style="stop-color:#DBDBDD"/>
			<stop  offset="0.8602" style="stop-color:#D9D9DB"/>
			<stop  offset="0.9409" style="stop-color:#BCBCBC"/>
			<stop  offset="1" style="stop-color:#6D6E70"/>
		</linearGradient>
		<rect x="732.3" y="154.4" class="st5" width="1.4" height="35.8"/>
	</g>
	<g>
		<g>
			<path class="st6" d="M391.2,48.4c0,4-3.2,7.2-7.2,7.2c-4,0-7.2-3.2-7.2-7.2c0-4,3.2-7.2,7.2-7.2
				C387.9,41.2,391.2,44.4,391.2,48.4z"/>
		</g>
		<path class="st6" d="M443.5,48.4c0,4-3.2,7.2-7.2,7.2c-4,0-7.2-3.2-7.2-7.2c0-4,3.2-7.2,7.2-7.2C440.3,41.2,443.5,44.4,443.5,48.4
			z"/>
		<path class="st6" d="M413.2,48.4c0,1-0.8,1.9-1.9,1.9c-1,0-1.9-0.8-1.9-1.9s0.8-1.9,1.9-1.9C412.4,46.5,413.2,47.4,413.2,48.4z"/>
		<path class="st6" d="M355.9,48.4c0,4-3.2,7.2-7.2,7.2c-4,0-7.2-3.2-7.2-7.2c0-4,3.2-7.2,7.2-7.2C352.6,41.2,355.9,44.4,355.9,48.4
			z"/>
		<path class="st6" d="M331.5,48.4c0,2.3-1.9,4.2-4.2,4.2c-2.3,0-4.2-1.9-4.2-4.2c0-2.3,1.9-4.2,4.2-4.2
			C329.6,44.2,331.5,46.1,331.5,48.4z"/>
	</g>
</g>
</svg>
