<?xml version="1.0" encoding="UTF-8" standalone="no"?> <!-- Created with Vectornator for iOS (http://vectornator.io/) --><!DOCTYPE svg PUBLIC
        "-//W3C//DTD SVG 1.1//EN" "http://www.w3.org/Graphics/SVG/1.1/DTD/svg11.dtd">
<svg style="fill-rule:evenodd;clip-rule:evenodd;stroke-linecap:round;stroke-linejoin:round;"
     xmlns:vectornator="http://vectornator.io" xmlns:xlink="http://www.w3.org/1999/xlink"
     xmlns="http://www.w3.org/2000/svg" xml:space="preserve" version="1.1" viewBox="0 0 512 512">
<metadata>
</metadata>
    <defs/>
    <g id="Layer 1">
<path d="M168.406+106C161.546+106+156+111.546+156+118.406L156+393.594C156+400.454+161.546+406+168.406+406L311.406+406C307.256+398.712+304.688+390.424+304.688+381.438C304.688+353.823+327.073+331.438+354.688+331.438C355.129+331.438+355.561+331.489+356+331.5L356+118.406C356+111.546+350.454+106+343.594+106L168.406+106Z"
      fill-opacity="0.997773" fill="#4eff00" opacity="1"/>
        <path d="M234.798+76.6467L283.57+76.6467C290.197+76.6467+295.57+82.0193+295.57+88.6467L295.57+107.608C295.57+114.236+290.197+119.608+283.57+119.608L234.798+119.608C228.171+119.608+222.798+114.236+222.798+107.608L222.798+88.6467C222.798+82.0193+228.171+76.6467+234.798+76.6467Z"
              fill-opacity="0.997773" fill="#4eff00" opacity="1"/>
        <path d="M248.716+148.459L199.315+259.903L287.839+260.719L237.767+368.629L325.722+241.235L228.837+240.155L248.716+148.459Z"
              opacity="1" fill="#ffffff"/>
        <path stroke="#000000" stroke-width="3.87"
              d="M309.689+382.927C309.689+356.694+330.956+335.427+357.189+335.427C383.423+335.427+404.689+356.694+404.689+382.927C404.689+409.161+383.423+430.427+357.189+430.427C330.956+430.427+309.689+409.161+309.689+382.927Z"
              fill="none" stroke-linecap="round" opacity="1" stroke-linejoin="round"/>
        <path stroke="#000000" stroke-width="3.87" d="M354.558+347.891L353.403+393.19" fill="none"
              stroke-linecap="round" opacity="1" stroke-linejoin="round"/>
        <path stroke="#000000" stroke-width="3.87" d="M354.558+392.036L378.217+416.561" fill="none"
              stroke-linecap="round" opacity="1" stroke-linejoin="round"/>
</g>
</svg>
