<?xml version="1.0" encoding="utf-8"?>
<!-- Generator: Adobe Illustrator 24.0.1, SVG Export Plug-In . SVG Version: 6.00 Build 0)  -->
<svg version="1.1" id="圖層_1" xmlns="http://www.w3.org/2000/svg" xmlns:xlink="http://www.w3.org/1999/xlink" x="0px"
     y="0px"
     width="768" height="1024" viewBox="0 0 768 1024" style="enable-background:new 0 0 768 1024;" xml:space="preserve">
<style type="text/css">
	.st0{fill:#BBBBBB;}
	.st1{fill:#121212;}
	.st2{fill:#FB753B;}
	.st3{clip-path:url(#SVGID_2_);fill:url(#SVGID_3_);}
	.st4{clip-path:url(#SVGID_5_);fill:url(#SVGID_6_);}
	.st5{clip-path:url(#SVGID_8_);fill:url(#SVGID_9_);}
	.st6{fill:#1A1A1C;}
</style>
    <g>
	<path class="st0" d="M732.6,926.6V99.1c0-22.8-18.6-41.4-41.4-41.4H75.8c-22.8,0-41.4,18.6-41.4,41.4v827.5
		c0,22.8,18.6,41.4,41.4,41.4h615.4C714.1,968.1,732.6,949.5,732.6,926.6z"/>
        <path class="st1"
              d="M75.8,964.6c-21,0-38-17-38-38V99.1c0-21,17-38,38-38h615.4c21,0,38,17,38,38v827.5c0,21-17,38-38,38H75.8z"/>
        <g id="screenLayer"><path id="screen" class="st2" d="M73.2,937.6c-4.8,0-8.6-3.9-8.6-8.6V96.8c0-4.8,3.9-8.6,8.6-8.6h620.6c4.8,0,8.6,3.9,8.6,8.6V929
		c0,4.8-3.9,8.6-8.6,8.6H73.2z"/></g>
        <g>
		<defs>
			<path id="SVGID_1_" d="M651.1,57.7c0-1,0.8-1.7,1.7-1.7h36.6c1,0,1.7,0.8,1.7,1.7H651.1z"/>
		</defs>
            <use xlink:href="#SVGID_1_" style="overflow:visible;fill:#B6B7B9;"/>
            <clipPath id="SVGID_2_">
			<use xlink:href="#SVGID_1_" style="overflow:visible;"/>
		</clipPath>

            <linearGradient id="SVGID_3_" gradientUnits="userSpaceOnUse" x1="-264.728" y1="51.0896" x2="-264.728"
                            y2="11.0631" gradientTransform="matrix(0 1 -1 0 702.168 321.8335)">
			<stop offset="0" style="stop-color:#6D6E70"/>
                <stop offset="8.064520e-02" style="stop-color:#BCBCBC"/>
                <stop offset="0.1882" style="stop-color:#DBDBDD"/>
                <stop offset="0.8602" style="stop-color:#D9D9DB"/>
                <stop offset="0.9409" style="stop-color:#BCBCBC"/>
                <stop offset="1" style="stop-color:#6D6E70"/>
		</linearGradient>
            <rect x="651.1" y="56.5" class="st3" width="40" height="1.2"/>
	</g>
        <g>
		<defs>
			<path id="SVGID_4_" d="M732.6,120.6c1,0,1.7,0.8,1.7,1.7v29.3c0,1-0.8,1.7-1.7,1.7V120.6z"/>
		</defs>
            <use xlink:href="#SVGID_4_" style="overflow:visible;fill:#B6B7B9;"/>
            <clipPath id="SVGID_5_">
			<use xlink:href="#SVGID_4_" style="overflow:visible;"/>
		</clipPath>

            <linearGradient id="SVGID_6_" gradientUnits="userSpaceOnUse" x1="-209.5907" y1="687.3625" x2="-209.5907"
                            y2="654.6111" gradientTransform="matrix(-1 0 0 -1 523.6436 807.9766)">
			<stop offset="0" style="stop-color:#6D6E70"/>
                <stop offset="8.064520e-02" style="stop-color:#BCBCBC"/>
                <stop offset="0.1882" style="stop-color:#DBDBDD"/>
                <stop offset="0.8602" style="stop-color:#D9D9DB"/>
                <stop offset="0.9409" style="stop-color:#BCBCBC"/>
                <stop offset="1" style="stop-color:#6D6E70"/>
		</linearGradient>
            <rect x="732.6" y="120.6" class="st4" width="1.2" height="32.8"/>
	</g>
        <g>
		<defs>
			<path id="SVGID_7_" d="M732.6,160.2c1,0,1.7,0.8,1.7,1.7v29.3c0,1-0.8,1.7-1.7,1.7V160.2z"/>
		</defs>
            <use xlink:href="#SVGID_7_" style="overflow:visible;fill:#B6B7B9;"/>
            <clipPath id="SVGID_8_">
			<use xlink:href="#SVGID_7_" style="overflow:visible;"/>
		</clipPath>

            <linearGradient id="SVGID_9_" gradientUnits="userSpaceOnUse" x1="-209.5907" y1="647.731" x2="-209.5907"
                            y2="614.9797" gradientTransform="matrix(-1 0 0 -1 523.6436 807.9766)">
			<stop offset="0" style="stop-color:#6D6E70"/>
                <stop offset="8.064520e-02" style="stop-color:#BCBCBC"/>
                <stop offset="0.1882" style="stop-color:#DBDBDD"/>
                <stop offset="0.8602" style="stop-color:#D9D9DB"/>
                <stop offset="0.9409" style="stop-color:#BCBCBC"/>
                <stop offset="1" style="stop-color:#6D6E70"/>
		</linearGradient>
            <rect x="732.6" y="160.2" class="st5" width="1.2" height="32.8"/>
	</g>
        <g>
		<g>
			<path class="st6" d="M390.3,74.3c0,3.5-2.8,6.2-6.2,6.2c-3.5,0-6.2-2.8-6.2-6.2s2.8-6.2,6.2-6.2C387.5,68,390.3,70.8,390.3,74.3z
				"/>
		</g>
            <path class="st6"
                  d="M435.6,74.3c0,3.5-2.8,6.2-6.2,6.2c-3.5,0-6.2-2.8-6.2-6.2s2.8-6.2,6.2-6.2C432.8,68,435.6,70.8,435.6,74.3z"
            />
            <path class="st6" d="M409.4,74.3c0,0.9-0.7,1.6-1.6,1.6c-0.9,0-1.6-0.7-1.6-1.6c0-0.9,0.7-1.6,1.6-1.6
			C408.6,72.6,409.4,73.4,409.4,74.3z"/>
            <path class="st6"
                  d="M359.8,74.3c0,3.5-2.8,6.2-6.2,6.2c-3.5,0-6.2-2.8-6.2-6.2s2.8-6.2,6.2-6.2C357,68,359.8,70.8,359.8,74.3z"/>
            <path class="st6" d="M338.7,74.3c0,2-1.6,3.6-3.6,3.6c-2,0-3.6-1.6-3.6-3.6c0-2,1.6-3.6,3.6-3.6C337.1,70.7,338.7,72.3,338.7,74.3
			z"/>
	</g>
</g>
</svg>
