<?xml version="1.0" encoding="utf-8"?>
<!-- Generator: Adobe Illustrator 24.0.1, SVG Export Plug-In . SVG Version: 6.00 Build 0)  -->
<svg version="1.1" id="圖層_1" xmlns="http://www.w3.org/2000/svg" xmlns:xlink="http://www.w3.org/1999/xlink" x="0px"
     y="0px"
     viewBox="0 0 360 722" style="enable-background:new 0 0 360 722;" xml:space="preserve">
<style type="text/css">
	.st0{fill:none;}
	.st1{fill:#4E5C52;}
	.st2{clip-path:url(#SVGID_2_);fill:url(#SVGID_3_);}
	.st3{clip-path:url(#SVGID_5_);fill:url(#SVGID_6_);}
	.st4{clip-path:url(#SVGID_8_);fill:url(#SVGID_9_);}
	.st5{clip-path:url(#SVGID_11_);fill:url(#SVGID_12_);}
	.st6{fill:#3C4940;}
	.st7{fill-opacity:0.9579;}
	.st8{fill:#57645B;}
	.st9{fill:#424F46;}
	.st10{clip-path:url(#SVGID_14_);fill-rule:evenodd;clip-rule:evenodd;fill:#3D4A41;}
	.st11{fill:url(#SVGID_15_);}
	.st12{fill:url(#SVGID_16_);}
	.st13{fill:url(#SVGID_17_);}
	.st14{fill:#161616;}
	.st15{fill:#0A0D13;}
	.st16{fill:#091427;}
	.st17{fill-rule:evenodd;clip-rule:evenodd;fill:#235A91;fill-opacity:0.5561;}
	.st18{fill:url(#SVGID_18_);}
	.st19{fill:url(#SVGID_19_);}
	.st20{fill:url(#screen_1_);}
	.st21{fill:#FFFFFF;fill-opacity:6.542059e-02;}
	.st22{fill:none;stroke:#292929;stroke-width:0.2;stroke-linecap:round;stroke-miterlimit:15.1181;}
	
		.st23{fill:none;filter:url(#Adobe_OpacityMaskFilter);stroke:#FFFFFF;stroke-width:0.2;stroke-linecap:round;stroke-miterlimit:15.1181;}
	.st24{mask:url(#mask1062-8_1_);}
	.st25{fill:#FFFFFF;}
</style>
    <pattern y="722" width="360" height="722" patternUnits="userSpaceOnUse" id="pattern3129" viewBox="0 -722 360 722"
             style="overflow:visible;">
	<g>
		<rect y="-722" class="st0" width="360" height="722"/>
	</g>
</pattern>
    <g>
	<g>
		<path class="st1" d="M358.3,167.1c0.9,0,1.7,0.8,1.7,1.7v79.2c0,0.9-0.8,1.7-1.7,1.7h-13.1c-0.9,0-1.7-0.8-1.7-1.7v-79.2
			c0-0.9,0.8-1.7,1.7-1.7H358.3z"/>
        <g>
			<defs>
				<path id="SVGID_1_" d="M358.3,167.1c0.9,0,1.7,0.8,1.7,1.7v79.2c0,0.9-0.8,1.7-1.7,1.7h-13.1c-0.9,0-1.7-0.8-1.7-1.7v-79.2
					c0-0.9,0.8-1.7,1.7-1.7H358.3z"/>
			</defs>
            <clipPath id="SVGID_2_">
				<use xlink:href="#SVGID_1_" style="overflow:visible;"/>
			</clipPath>

            <linearGradient id="SVGID_3_" gradientUnits="userSpaceOnUse" x1="-496.54" y1="1327.2577" x2="-496.54"
                            y2="1306.2159" gradientTransform="matrix(-3.7795 0 0 -3.7795 -1518.2306 5185.0059)">
				<stop offset="0" style="stop-color:#5E6C62;stop-opacity:0.2745"/>
                <stop offset="5.000000e-02" style="stop-color:#5E6C62"/>
                <stop offset="0.95" style="stop-color:#5E6C62"/>
                <stop offset="1" style="stop-color:#5E6C62;stop-opacity:0.2745"/>
			</linearGradient>
            <path class="st2"
                  d="M357.9,168.6c0.8,0,1.5,0.7,1.5,1.5v76.5c0,0.8-0.7,1.5-1.5,1.5h-0.5v-79.5L357.9,168.6z"/>
		</g>
        <path class="st1" d="M1.7,97.7h13.1c0.9,0,1.7,0.8,1.7,1.7v24.6c0,0.9-0.8,1.7-1.7,1.7H1.7c-0.9,0-1.7-0.8-1.7-1.7V99.4
			C0,98.5,0.8,97.7,1.7,97.7z"/>
        <g>
			<defs>
				<path id="SVGID_4_" d="M1.7,97.7h13.1c0.9,0,1.7,0.8,1.7,1.7v24.6c0,0.9-0.8,1.7-1.7,1.7H1.7c-0.9,0-1.7-0.8-1.7-1.7V99.4
					C0,98.5,0.8,97.7,1.7,97.7z"/>
			</defs>
            <clipPath id="SVGID_5_">
				<use xlink:href="#SVGID_4_" style="overflow:visible;"/>
			</clipPath>

            <linearGradient id="SVGID_6_" gradientUnits="userSpaceOnUse" x1="-294.3983" y1="1327.2577" x2="-294.3983"
                            y2="1320.6458" gradientTransform="matrix(3.7795 0 0 -3.7795 1114.2306 5115.6533)">
				<stop offset="0" style="stop-color:#5E6C62;stop-opacity:0.2745"/>
                <stop offset="5.000000e-02" style="stop-color:#5E6C62"/>
                <stop offset="0.95" style="stop-color:#5E6C62"/>
                <stop offset="1" style="stop-color:#5E6C62;stop-opacity:0.2745"/>
			</linearGradient>
            <path class="st3" d="M2.1,99.2c-0.8,0-1.5,0.7-1.5,1.5v22c0,0.8,0.7,1.5,1.5,1.5h0.5v-25H2.1z"/>
		</g>
        <path class="st1" d="M1.7,150c-0.9,0-1.7,0.8-1.7,1.7v48.8c0,0.9,0.8,1.7,1.7,1.7h13.1c0.9,0,1.7-0.8,1.7-1.7v-48.8
			c0-0.9-0.8-1.7-1.7-1.7L1.7,150z"/>
        <g>
			<defs>
				<path id="SVGID_7_" d="M1.7,150c-0.9,0-1.7,0.8-1.7,1.7v48.8c0,0.9,0.8,1.7,1.7,1.7h13.1c0.9,0,1.7-0.8,1.7-1.7v-48.8
					c0-0.9-0.8-1.7-1.7-1.7H1.7z"/>
			</defs>
            <clipPath id="SVGID_8_">
				<use xlink:href="#SVGID_7_" style="overflow:visible;"/>
			</clipPath>

            <linearGradient id="SVGID_9_" gradientUnits="userSpaceOnUse" x1="-294.3983" y1="1327.2577" x2="-294.3983"
                            y2="1314.2479" gradientTransform="matrix(3.7795 0 0 -3.7795 1114.2306 5167.9287)">
				<stop offset="0" style="stop-color:#5E6C62;stop-opacity:0.2745"/>
                <stop offset="5.000000e-02" style="stop-color:#5E6C62"/>
                <stop offset="0.95" style="stop-color:#5E6C62"/>
                <stop offset="1" style="stop-color:#5E6C62;stop-opacity:0.2745"/>
			</linearGradient>
            <path class="st4" d="M2.1,151.5c-0.8,0-1.5,0.7-1.5,1.5v46.1c0,0.8,0.7,1.5,1.5,1.5h0.5v-49.2L2.1,151.5z"/>
		</g>
        <path class="st1" d="M1.7,215.7c-0.9,0-1.7,0.8-1.7,1.7v48.8c0,0.9,0.8,1.7,1.7,1.7h13.1c0.9,0,1.7-0.8,1.7-1.7v-48.8
			c0-0.9-0.8-1.7-1.7-1.7H1.7z"/>
        <g>
			<defs>
				<path id="SVGID_10_" d="M1.7,215.7c-0.9,0-1.7,0.8-1.7,1.7v48.8c0,0.9,0.8,1.7,1.7,1.7h13.1c0.9,0,1.7-0.8,1.7-1.7v-48.8
					c0-0.9-0.8-1.7-1.7-1.7H1.7z"/>
			</defs>
            <clipPath id="SVGID_11_">
				<use xlink:href="#SVGID_10_" style="overflow:visible;"/>
			</clipPath>

            <linearGradient id="SVGID_12_" gradientUnits="userSpaceOnUse" x1="-294.3983" y1="1327.2577" x2="-294.3983"
                            y2="1314.2479" gradientTransform="matrix(3.7795 0 0 -3.7795 1114.2306 5233.5889)">
				<stop offset="0" style="stop-color:#5E6C62;stop-opacity:0.2745"/>
                <stop offset="5.000000e-02" style="stop-color:#5E6C62"/>
                <stop offset="0.95" style="stop-color:#5E6C62"/>
                <stop offset="1" style="stop-color:#5E6C62;stop-opacity:0.2745"/>
			</linearGradient>
            <path class="st5" d="M2.1,217.2c-0.8,0-1.5,0.7-1.5,1.5v46.1c0,0.8,0.7,1.5,1.5,1.5h0.5v-49.2H2.1z"/>
		</g>
        <path class="st6" d="M54.7,0.8C25.5,0.8,2,24.3,2,53.5v614.7C2,697.4,25.5,721,54.7,721h107l2.2-3.1h7.8h16.7h7.8l2.2,3.1h107
			c29.2,0,52.8-23.5,52.8-52.8V53.5c0-29.2-23.5-52.8-52.8-52.8L54.7,0.8z"/>
	</g>
        <path class="st7" d="M55.9,4.1h249.4c27.8,0,50.4,22.5,50.4,50.4v612.4c0,27.8-22.5,50.4-50.4,50.4H55.9
		c-27.8,0-50.4-22.5-50.4-50.4V54.5C5.5,26.7,28.1,4.1,55.9,4.1z"/>
        <g>
		<g>
			<path class="st8" d="M3.2,647.1h4.2V74.9H3.2V647.1z"/>
            <path class="st8" d="M356.8,652h-4.2v16.5c0,26.6-21.4,48-48,48H55.3c-26.6,0-48-21.4-48-48V652H3.2v14.3
				c0,29.7,23.9,53.6,53.6,53.6h246.5c29.7,0,53.6-23.9,53.6-53.6V652z"/>
            <path class="st9" d="M284.5,2.3v4h4.9v-4H284.5z M3.2,70v4.9h4.2V70H3.2z M352.7,70v4.9h4.2V70H352.7z M3.2,647.1v4.9h4.2v-4.9
				H3.2z M352.7,647.1v4.9h4.2v-4.9H352.7z M70.6,716.4v3.4h4.9v-3.4H70.6z"/>
            <path class="st8" d="M356.8,74.9h-4.2v572.1h4.2V74.9z"/>
            <path class="st8" d="M56.7,2.3C27.1,2.3,3.2,26.2,3.2,55.8V70h4.2V54.2c0-26.6,21.4-48,48-48h249.4c26.6,0,48,21.4,48,48V70h4.2
				V55.8c0-29.7-23.9-53.6-53.6-53.6L56.7,2.3z"/>
		</g>
            <g>
			<defs>
				<path id="SVGID_13_" d="M56.7,2C27.1,2,3.2,25.9,3.2,55.6V666c0,29.7,23.9,53.6,53.6,53.6h246.5c29.7,0,53.6-23.9,53.6-53.6
					V55.6c0-29.7-23.9-53.6-53.6-53.6L56.7,2z M55.3,6h249.4c26.6,0,48,21.4,48,48v614.2c0,26.6-21.4,48-48,48H55.3
					c-26.6,0-48-21.4-48-48V54C7.3,27.4,28.7,6,55.3,6L55.3,6z"/>
			</defs>
                <clipPath id="SVGID_14_">
				<use xlink:href="#SVGID_13_" style="overflow:visible;"/>
			</clipPath>
                <path class="st10" d="M37.9,11.6c-6.6-0.2-19.1,1.8-32,16.3c-18.8,21.1-2,8.4-2,8.4s11.5-17.9,27.6-20.2s11.2-3.9,11.2-3.9
				S40.9,11.7,37.9,11.6z M322.1,11.6c-3,0.1-4.8,0.6-4.8,0.6s-4.9,1.6,11.2,3.9s27.6,20.2,27.6,20.2s16.8,12.7-2-8.4
				C341.2,13.4,328.7,11.4,322.1,11.6z M-2.4,681.9c-1.4-0.2-0.5,2.3,8.3,12.2c18.8,21.1,36.8,15.7,36.8,15.7s4.9-1.6-11.2-3.9
				c-16.1-2.3-27.6-20.2-27.6-20.2S-0.8,682.1-2.4,681.9z M362.4,681.9c-1.6,0.2-6.4,3.8-6.4,3.8s-11.5,17.9-27.6,20.2
				c-16.1,2.3-11.2,3.9-11.2,3.9s18,5.4,36.8-15.7C362.9,684.2,363.9,681.8,362.4,681.9z"/>
		</g>
	</g>
        <g transform="translate(-.11323174)">
		
			<linearGradient id="SVGID_15_" gradientUnits="userSpaceOnUse" x1="340.7654" y1="362.877" x2="349.6874"
                            y2="362.877" gradientTransform="matrix(1 0 0 -1 -0.428 724)">
			<stop offset="0" style="stop-color:#404040"/>
                <stop offset="0.6" style="stop-color:#838383"/>
                <stop offset="1" style="stop-color:#A7A7A7"/>
		</linearGradient>
            <path class="st11" d="M325.3,15.4c-1.2-0.1-0.6,1.1,2,3.5c8.7,8.1,14.1,19.7,14.1,32.7v309.6v309.6c0,13-5.4,24.6-14.1,32.7
			c-2.6,2.4-3.2,3.6-2,3.5c0.7-0.1,2-0.6,3.9-1.6c12.7-6.8,20.1-21.4,20.1-36.9V361.1V53.9c0-15.5-7.4-30.2-20.1-36.9
			C327.3,16,326,15.4,325.3,15.4z"/>

            <linearGradient id="SVGID_16_" gradientUnits="userSpaceOnUse" x1="-423.2346" y1="362.877" x2="-414.3126"
                            y2="362.877" gradientTransform="matrix(-1 0 0 -1 -403.3456 724)">
			<stop offset="0" style="stop-color:#404040"/>
                <stop offset="0.6" style="stop-color:#838383"/>
                <stop offset="1" style="stop-color:#A7A7A7"/>
		</linearGradient>
            <path class="st12" d="M35,15.4c1.2-0.1,0.6,1.1-2,3.5c-8.7,8.1-14.1,19.7-14.1,32.7v309.6v309.6c0,13,5.4,24.6,14.1,32.7
			c2.6,2.4,3.2,3.6,2,3.5c-0.7-0.1-2-0.6-3.9-1.6C18.3,698.5,11,683.9,11,668.3V361.1V53.9c0-15.5,7.4-30.2,20.1-36.9
			C32.9,16,34.3,15.4,35,15.4L35,15.4z"/>
	</g>
        <g>
		<pattern id="SVGID_17_" xlink:href="#pattern3129" patternTransform="matrix(1 0 0 -1 -266.9286 -15956.1494)">
		</pattern>
            <path class="st13" d="M161.6,27.4h37.5c1.5,0,2.7,1.2,2.7,2.7v0c0,1.5-1.2,2.7-2.7,2.7h-37.5c-1.5,0-2.7-1.2-2.7-2.7v0
			C158.8,28.7,160.1,27.4,161.6,27.4z"/>
            <circle class="st14" cx="218.9" cy="29.8" r="5.1"/>
            <circle class="st15" cx="218.9" cy="29.8" r="4.1"/>
            <circle class="st16" cx="218.9" cy="29.8" r="3.1"/>
	</g>
        <path class="st17"
              d="M216.8,27.7c-0.4,0-0.9,0.6-0.9,1.7c0,1.1,0.4,1.7,0.7,1.7S217.9,29.5,216.8,27.7L216.8,27.7z"/>
        <path class="st17"
              d="M219.4,27.4c-0.6,0.2-0.7,1.1-0.7,1.7c0,0.5,0.8,1.9,1.7,1.6c0.9-0.3,1.1-1.5,0.7-2.3S220,27,219.4,27.4z"/>
        <g id="screenLayer">
		
			<linearGradient id="SVGID_18_" gradientUnits="userSpaceOnUse" x1="-272.6139" y1="1346.6851" x2="-193.9944"
                            y2="1346.6851" gradientTransform="matrix(3.7795 0 0 -3.7795 1062.032 5105.8042)">
			<stop offset="0" style="stop-color:#4F4F4F;stop-opacity:0.1308"/>
                <stop offset="7.000000e-02" style="stop-color:#4F4F4F"/>
                <stop offset="0.937" style="stop-color:#4F4F4F;stop-opacity:0.9533"/>
                <stop offset="1" style="stop-color:#4F4F4F;stop-opacity:0"/>
		</linearGradient>
            <path class="st18" d="M55.3,9.7c-8.7,0-16.8,2.5-23.6,6.8v5.7c6.5-4.3,14.3-6.7,22.7-6.7h99.8h52.1h99.8c8.4,0,16.2,2.5,22.7,6.7
			v-5.7c-6.8-4.3-14.9-6.8-23.6-6.8h-98.9h-52.1L55.3,9.7z"/>

            <linearGradient id="SVGID_19_" gradientUnits="userSpaceOnUse" x1="-272.6139" y1="1799.6517" x2="-193.9944"
                            y2="1799.6517" gradientTransform="matrix(3.7795 0 0 3.7795 1062.032 -6096.0625)">
			<stop offset="0" style="stop-color:#4F4F4F;stop-opacity:0.1308"/>
                <stop offset="7.000000e-02" style="stop-color:#4F4F4F"/>
                <stop offset="0.937" style="stop-color:#4F4F4F;stop-opacity:0.9533"/>
                <stop offset="1" style="stop-color:#4F4F4F;stop-opacity:0"/>
		</linearGradient>
            <path class="st19" d="M55.3,712c-8.7,0-16.8-2.5-23.6-6.8v-5.7c6.5,4.3,14.3,6.7,22.7,6.7h99.8h52.1h99.8c8.4,0,16.2-2.5,22.7-6.7
			v5.7c-6.8,4.3-14.9,6.8-23.6,6.8h-98.9h-52.1H55.3z"/>

            <linearGradient id="screen_1_" gradientUnits="userSpaceOnUse" x1="-197.4981" y1="1585.5903" x2="-18.2852"
                            y2="1585.5903"
                            gradientTransform="matrix(2.314293e-16 3.7795 3.7795 -2.314293e-16 -5812.7822 768.6506)">
			<stop offset="0" style="stop-color:#303030"/>
                <stop offset="1" style="stop-color:#171717"/>
		</linearGradient>
            <path id="screen" class="st20" d="M55.8,22.2c-17.8,0-32.1,14.3-32.1,32.1v613.2c0,17.8,14.3,32.1,32.1,32.1h248.4
			c17.8,0,32.1-14.3,32.1-32.1V54.3c0-17.8-14.3-32.1-32.1-32.1h-31.4c-3,0-5.4,2.4-5.4,5.4V30c0,9.7-7.8,17.4-17.4,17.4H109.9
			c-9.7,0-17.4-7.8-17.4-17.4v-2.5c0-3-2.4-5.4-5.4-5.4L55.8,22.2z"/>
	</g>
        <g>
		<circle class="st21" cx="110" cy="29.8" r="3.4"/>
            <circle class="st21" cx="245.7" cy="29.8" r="6.1"/>
            <circle class="st21" cx="138.5" cy="29.8" r="5"/>
	</g>
        <path class="st22" d="M161.6,27.4c-1.5,0-2.7,1.2-2.7,2.7s1.2,2.7,2.7,2.7h37.5c1.5,0,2.7-1.2,2.7-2.7c0-1.5-1.2-2.7-2.7-2.7
		L161.6,27.4z"/>
        <defs>
		<filter id="Adobe_OpacityMaskFilter" filterUnits="userSpaceOnUse" x="158" y="29.3" width="44.7" height="1.7">
			<feColorMatrix type="matrix" values="1 0 0 0 0  0 1 0 0 0  0 0 1 0 0  0 0 0 1 0"/>
		</filter>
	</defs>
        <mask maskUnits="userSpaceOnUse" x="158" y="29.3" width="44.7" height="1.7" id="mask1062-8_1_">
		<path class="st23" d="M161.6,27.4c-1.5,0-2.7,1.2-2.7,2.7c0,1.5,1.2,2.7,2.7,2.7h37.5c1.5,0,2.7-1.2,2.7-2.7s-1.2-2.7-2.7-2.7
			L161.6,27.4z"/>
	</mask>
        <g class="st24">
		<path class="st25" d="M159.7,30.2c0,0.5-0.4,0.9-0.9,0.9l0,0c-0.5,0-0.9-0.4-0.9-0.9c0,0,0,0,0,0c0-0.5,0.4-0.9,0.9-0.9
			c0,0,0,0,0,0C159.3,29.3,159.7,29.7,159.7,30.2C159.7,30.2,159.7,30.2,159.7,30.2z"/>
            <path class="st25" d="M202.7,30.2c0,0.5-0.4,0.9-0.9,0.9l0,0c-0.5,0-0.9-0.4-0.9-0.9c0,0,0,0,0,0c0-0.5,0.4-0.9,0.9-0.9
			c0,0,0,0,0,0C202.3,29.3,202.7,29.7,202.7,30.2C202.7,30.2,202.7,30.2,202.7,30.2z"/>
	</g>
</g>
</svg>
